<?xml version="1.0" encoding="iso-8859-1"?>
<!-- Uploaded to: SVG Repo, www.svgrepo.com, Generator: SVG Repo Mixer Tools -->
<svg fill="#000000" height="800px" width="800px" version="1.1" id="Layer_1" xmlns="http://www.w3.org/2000/svg" xmlns:xlink="http://www.w3.org/1999/xlink" 
	 viewBox="0 0 512 512" xml:space="preserve">
<g>
	<g>
		<path d="M471.562,64.366c-3.258-3.248-7.67-5.289-12.268-5.289c-0.017,0-0.036,0-0.053,0l-55.549,0.468V49.81
			c0-27.335-21.836-49.81-49.171-49.81H107.001C79.666,0,57.339,22.475,57.339,49.81v9.267h-4.633
			c-9.596,0-17.376,7.78-17.376,17.376s7.78,17.376,17.376,17.376h4.633v9.822c0,27.335,22.326,49.255,49.662,49.255h247.521
			c27.335,0,49.171-21.92,49.171-49.255v-8.793l38.226-0.537v43.574L222.664,259.559c-5.521,3.064-8.945,8.88-8.945,15.193v39.167
			h-24.51c-9.596,0-17.191,8.224-17.191,17.82v95.7h118.154v-95.7c0-9.596-8.261-17.82-17.857-17.82h-23.844v-28.936
			l219.254-121.665c5.521-3.064,8.945-8.88,8.945-15.193V76.89C476.67,72.273,474.831,67.626,471.562,64.366z"/>
	</g>
</g>
<g>
	<g>
		<path d="M172.018,462.19v32.197c0,9.596,7.595,17.613,17.191,17.613h83.105c9.596,0,17.857-8.017,17.857-17.613V462.19H172.018z"
			/>
	</g>
</g>
</svg>