<?xml version="1.0" ?><!-- Uploaded to: SVG Repo, www.svgrepo.com, Generator: SVG Repo Mixer Tools -->
<svg width="800px" height="800px" viewBox="0 0 100 100" data-name="Layer 1" id="Layer_1" xmlns="http://www.w3.org/2000/svg"><defs><style>
      .cls-1 {
        fill: none;
        stroke: #231f20;
        stroke-linejoin: round;
        stroke-width: 2px;
      }
    </style></defs><path class="cls-1" d="M73.56,57.36c0,14.72-11.93,26.15-26.65,26.15s-26.65-11.27-26.65-25.99"/><rect class="cls-1" height="4.71" rx="1.79" ry="1.79" width="57.83" x="17.99" y="53.02"/><path class="cls-1" d="M52.04,51.49v1.53h-10.26v-1.53c0-2.01,1.16-3.75,2.84-4.59,.68-.34,1.46-.54,2.28-.54s1.6,.19,2.28,.54c.5,.25,.96,.58,1.35,.97,.93,.93,1.5,2.21,1.5,3.62Z"/><path class="cls-1" d="M60.26,25.5v5.49c-.63-.48-1.42-.77-2.28-.77h-.31c-.72,0-1.4,.21-1.97,.56v-5.29c0-1.8-1.46-3.25-3.25-3.25h0c-1.8,0-3.25,1.46-3.25,3.25v21.41c-.68-.34-1.46-.54-2.28-.54s-1.6,.19-2.28,.54V25.5c0-4.31,3.5-7.81,7.81-7.81,2.16,0,4.11,.88,5.53,2.29,1.41,1.42,2.29,3.37,2.29,5.53Z"/><path class="cls-1" d="M61.75,33.99h-7.84c0-1.05,.42-1.99,1.1-2.67,.21-.21,.44-.39,.69-.54,.57-.36,1.25-.56,1.97-.56h.31c.86,0,1.65,.29,2.28,.77,.91,.68,1.49,1.77,1.49,3Z"/><polygon class="cls-1" points="64.98 45.26 64.98 48.55 63.21 48.55 63.21 53.06 59.93 53.06 59.93 48.55 58.52 48.55 58.52 45.26 64.98 45.26"/><path class="cls-1" d="M34.48,51.34l-1.18-.45c-1.17-.45-2.42-.45-3.58,0l-1.18,.45c-1.97,.76-3.97-1.08-3.97-3.67h0c0-2.47,1.84-4.3,3.76-3.74l1.81,.53c.9,.26,1.84,.26,2.74,0l1.81-.53c1.92-.56,3.76,1.27,3.76,3.74h0c0,2.59-2,4.43-3.97,3.67Z"/></svg>