<?xml version="1.0" encoding="UTF-8"?>
<!DOCTYPE svg PUBLIC "-//W3C//DTD SVG 1.1//EN" "http://www.w3.org/Graphics/SVG/1.1/DTD/svg11.dtd">
<!-- Creator: CorelDRAW X8 -->
<svg xmlns="http://www.w3.org/2000/svg" xml:space="preserve" width="4.31827in" height="4.38505in" version="1.1" style="shape-rendering:geometricPrecision; text-rendering:geometricPrecision; image-rendering:optimizeQuality; fill-rule:evenodd; clip-rule:evenodd"
viewBox="0 0 4291 4357"
 xmlns:xlink="http://www.w3.org/1999/xlink">
 <defs>
  <style type="text/css">
   <![CDATA[
    .str1 {stroke:#FEFEFE;stroke-width:27.6}
    .str2 {stroke:#FEFEFE;stroke-width:6.90097}
    .str0 {stroke:#02437B;stroke-width:6.90097}
    .str3 {stroke:#33A6A3;stroke-width:6.90097}
    .fil2 {fill:none}
    .fil3 {fill:#FEFEFE}
    .fil4 {fill:#FEFEFE}
    .fil0 {fill:#02437B}
    .fil1 {fill:#33A6A3}
   ]]>
  </style>
 </defs>
 <g id="Layer_x0020_1">
  <metadata id="CorelCorpID_0Corel-Layer"/>
  <path class="fil0 str0" d="M2245 3013c-33,24 -63,36 -89,37 78,92 217,49 221,2 3,-81 -71,-93 -132,-39z"/>
  <path class="fil0" d="M3233 1430c0,-119 499,-736 543,-750 -310,-295 -710,-497 -1154,-561 -100,-14 -203,-22 -307,-22 -21,0 -43,0 -64,1 -716,72 -1319,798 -1319,1674 0,511 198,996 640,1320 183,149 327,212 431,189 123,-10 117,-170 23,-176 -46,13 -92,-16 -121,-43 -55,-64 0,-99 164,-104 231,13 331,-89 307,-206 3,-120 -181,-162 -226,-79 -58,92 -146,158 -264,200 -445,20 -687,-329 -660,-910 33,-318 168,-544 349,-697 204,-159 461,-253 740,-253 367,0 696,164 918,417zm-1662 -161l-3 3c1,-1 2,-2 3,-3z"/>
  <path class="fil1" d="M2658 3650c-418,89 -814,121 -1318,-174 -1217,-908 -943,-2599 256,-3302 16,-10 33,-20 50,-29 144,-78 302,-128 467,-145 -1173,35 -2113,997 -2113,2178 0,1204 976,2179 2179,2179 163,0 72,-3 251,-12 424,-33 846,-181 1266,-445 24,-315 15,-682 16,-911 -313,274 -647,523 -1054,661z"/>
  <path class="fil0" d="M1369 3446c331,235 856,287 1294,159 292,-80 665,-351 1018,-633l3 -432 -1080 9 -2 797c-393,121 -954,32 -1248,-290 -187,-196 -233,-284 -290,-428 -139,-260 -220,-570 -220,-902 0,-655 315,-1223 774,-1498 -1168,686 -1435,2333 -249,3218z"/>
  <path class="fil0 str0" d="M1853 2606c34,23 63,36 89,36 -78,92 -216,50 -220,2 -3,-81 71,-93 131,-38z"/>
  <path class="fil2 str1" d="M954 486c-328,231 -537,474 -628,730"/>
  <path class="fil2 str1" d="M2273 4262c400,-17 707,-109 922,-275"/>
  <path class="fil2 str1" d="M420 2052c32,399 135,703 309,912"/>
  <path class="fil2 str1" d="M729 3664c290,276 570,433 839,472"/>
  <path class="fil2 str1" d="M2743 3411c386,-108 664,-267 835,-478"/>
  <path class="fil2 str1" d="M2661 195c385,109 664,268 835,479"/>
  <path class="fil2 str1" d="M1627 3075c-309,-254 -500,-512 -572,-774"/>
  <path class="fil2 str1" d="M1178 955c231,-327 475,-535 731,-626"/>
  <path class="fil2 str1" d="M1022 2949c238,322 486,526 744,611"/>
  <path class="fil2 str1" d="M787 705c-160,113 -262,231 -307,356"/>
  <path class="fil2 str1" d="M2532 4168c195,-9 345,-53 450,-135"/>
  <path class="fil2 str1" d="M524 2307c15,195 65,344 150,446"/>
  <path class="fil2 str1" d="M976 3785c142,134 279,211 410,230"/>
  <path class="fil2 str1" d="M2974 3261c188,-53 324,-131 408,-234"/>
  <path class="fil2 str1" d="M2891 346c188,53 324,131 408,234"/>
  <path class="fil2 str1" d="M1477 2845c-152,-124 -245,-250 -280,-378"/>
  <path class="fil2 str1" d="M1397 789c113,-160 232,-262 357,-306"/>
  <path class="fil2 str1" d="M1244 3111c117,157 238,257 364,298"/>
  <polygon class="fil3 str2" points="491,1417 497,1439 520,1439 502,1452 509,1473 491,1460 473,1473 480,1452 461,1439 484,1439 "/>
  <polygon class="fil3 str2" points="1263,1348 1270,1369 1292,1369 1274,1382 1281,1404 1263,1390 1245,1404 1252,1382 1234,1369 1256,1369 "/>
  <polygon class="fil3 str2" points="2098,1879 2105,1901 2127,1900 2109,1914 2116,1935 2098,1922 2080,1935 2087,1914 2069,1900 2091,1901 "/>
  <polygon class="fil3 str2" points="2086,375 2093,396 2115,396 2097,409 2104,430 2086,417 2068,430 2075,409 2057,396 2079,396 "/>
  <polygon class="fil3 str2" points="2276,877 2282,899 2305,899 2287,912 2294,933 2276,920 2258,933 2265,912 2246,899 2269,899 "/>
  <polygon class="fil3 str2" points="777,2150 784,2171 806,2171 788,2184 795,2205 777,2192 759,2205 766,2184 748,2171 770,2171 "/>
  <polygon class="fil3 str2" points="205,2328 212,2349 234,2349 216,2362 223,2383 205,2370 187,2383 194,2362 176,2349 198,2349 "/>
  <polygon class="fil3 str2" points="885,3238 892,3259 915,3259 896,3272 903,3294 885,3280 867,3294 874,3272 856,3259 879,3259 "/>
  <polygon class="fil3 str2" points="3379,3366 3386,3388 3409,3388 3391,3401 3398,3422 3379,3409 3361,3422 3368,3401 3350,3388 3373,3388 "/>
  <polygon class="fil3 str2" points="2032,4100 2038,4121 2061,4121 2043,4134 2050,4155 2032,4142 2014,4155 2020,4134 2002,4121 2025,4121 "/>
  <polygon class="fil3 str2" points="3001,2667 3008,2688 3030,2688 3012,2701 3019,2723 3001,2709 2983,2723 2990,2701 2972,2688 2994,2688 "/>
  <polygon class="fil3 str2" points="2324,3447 2331,3468 2354,3468 2335,3481 2342,3502 2324,3489 2306,3502 2313,3481 2295,3468 2318,3468 "/>
  <polygon class="fil3 str2" points="1354,3706 1367,3746 1409,3746 1375,3771 1388,3811 1354,3786 1320,3811 1333,3771 1299,3746 1341,3746 "/>
  <polygon class="fil3 str2" points="888,2575 901,2615 943,2615 909,2640 922,2680 888,2655 854,2680 867,2640 833,2615 875,2615 "/>
  <polygon class="fil3 str2" points="3440,3794 3453,3835 3495,3834 3461,3859 3474,3899 3440,3874 3406,3899 3419,3859 3385,3834 3427,3835 "/>
  <polygon class="fil3 str2" points="2663,3782 2676,3822 2718,3822 2684,3847 2697,3887 2663,3862 2629,3887 2642,3847 2608,3822 2650,3822 "/>
  <polygon class="fil3 str2" points="389,3027 402,3067 444,3067 410,3092 423,3132 389,3107 355,3132 368,3092 334,3067 376,3067 "/>
  <polygon class="fil3 str2" points="2853,3033 2866,3073 2908,3073 2874,3098 2887,3138 2853,3113 2819,3138 2832,3098 2798,3073 2840,3073 "/>
  <polygon class="fil3 str2" points="3498,2640 3511,2680 3553,2680 3519,2704 3532,2744 3498,2720 3464,2744 3477,2704 3443,2680 3485,2680 "/>
  <polygon class="fil3 str2" points="229,1823 242,1863 284,1863 250,1888 263,1928 229,1903 195,1928 208,1888 174,1863 216,1863 "/>
  <polygon class="fil3 str2" points="2703,609 2716,649 2758,649 2724,673 2737,714 2703,689 2669,714 2682,673 2648,649 2690,649 "/>
  <polygon class="fil3 str2" points="1690,869 1703,909 1745,909 1711,933 1724,973 1690,949 1656,973 1669,933 1635,909 1677,909 "/>
  <polygon class="fil3 str2" points="1063,1821 1076,1861 1118,1861 1084,1886 1097,1926 1063,1901 1029,1926 1042,1886 1008,1861 1050,1861 "/>
  <polygon class="fil3 str2" points="1071,337 1084,377 1126,377 1092,402 1105,442 1071,417 1037,442 1050,402 1016,377 1058,377 "/>
  <polygon class="fil3 str2" points="799,1277 805,1298 828,1298 810,1311 817,1333 799,1319 781,1333 787,1311 769,1298 792,1298 "/>
  <g id="_1625876795344">
   <path class="fil4" d="M2224 2684c236,-30 138,272 -74,245l-42 -6c233,-24 307,-216 116,-239z"/>
  </g>
  <path class="fil2" d="M2224 2684c82,0 89,-5 118,75 18,48 -46,130 -99,147 -81,25 -57,17 -135,17"/>
  <g id="_1625876795600">
   <path class="fil4" d="M1758 2621c21,33 76,44 112,48 -59,20 -103,21 -138,-35 -4,-7 -1,-16 6,-20 8,-3 17,-1 20,7z"/>
  </g>
  <path class="fil2" d="M1745 2628c30,58 125,41 125,41"/>
  <g id="_1625876794192">
   <path class="fil4" d="M2037 3145c93,92 -51,180 -214,47 51,17 276,91 214,-47z"/>
  </g>
  <path class="fil2" d="M2037 3145c22,35 37,38 5,75 -45,51 -120,22 -170,-1 -8,-3 -46,-26 -49,-27"/>
  <path class="fil1 str3" d="M3094 1539l737 -962 279 214 -221 288 164 125 -95 123 300 230c33,25 39,73 14,106l0 0c-25,33 -73,39 -106,14l-300 -229 -89 116 -164 -125 -239 314 -280 -214zm626 -164l135 -176 83 64 -134 176 -84 -64zm-528 153l645 -842 167 127 -645 843 -167 -128z"/>
 </g>
</svg>
